HIERARCHY
ROOT Hips
{
 OFFSET 0.000000 0.000000 0.000000
 CHANNELS 6 Xposition Yposition Zposition Yrotation Xrotation Zrotation
 JOINT Chest
 {
  OFFSET 0.000000 9.581000 -0.001100
  CHANNELS 3 Yrotation Xrotation Zrotation
  JOINT Chest2
  {
   OFFSET 0.000000 9.561100 0.002200
   CHANNELS 3 Yrotation Xrotation Zrotation
   JOINT Chest3
   {
    OFFSET 0.000000 9.521100 0.000000
    CHANNELS 3 Yrotation Xrotation Zrotation
    JOINT Chest4
    {
     OFFSET 0.000000 9.511400 0.000000
     CHANNELS 3 Yrotation Xrotation Zrotation
     JOINT Neck
     {
      OFFSET 0.000000 14.375100 0.000000
      CHANNELS 3 Yrotation Xrotation Zrotation
      JOINT Head
      {
       OFFSET 0.000000 8.901200 0.004600
       CHANNELS 3 Yrotation Xrotation Zrotation
       End Site
       {
        OFFSET 0.000000 16.962200 0.002400
       }
      }
     }
     JOINT RightCollar
     {
      OFFSET -2.920100 9.518800 0.000000
      CHANNELS 3 Yrotation Xrotation Zrotation
      JOINT RightShoulder
      {
       OFFSET -13.664500 0.000000 0.000000
       CHANNELS 3 Yrotation Xrotation Zrotation
       JOINT RightElbow
       {
        OFFSET 0.000000 -29.999200 0.000000
        CHANNELS 3 Yrotation Xrotation Zrotation
        JOINT RightWrist
        {
         OFFSET 0.000000 -24.253600 0.000000
         CHANNELS 3 Yrotation Xrotation Zrotation
         End Site
         {
          OFFSET 0.000000 -17.918900 0.000000
         }
        }
       }
      }
     }
     JOINT LeftCollar
     {
      OFFSET 2.920100 9.518800 0.000000
      CHANNELS 3 Yrotation Xrotation Zrotation
      JOINT LeftShoulder
      {
       OFFSET 13.664500 0.000000 0.000000
       CHANNELS 3 Yrotation Xrotation Zrotation
       JOINT LeftElbow
       {
        OFFSET 0.000000 -29.999200 0.000000
        CHANNELS 3 Yrotation Xrotation Zrotation
        JOINT LeftWrist
        {
         OFFSET 0.000000 -24.253600 0.000000
         CHANNELS 3 Yrotation Xrotation Zrotation
         End Site
         {
          OFFSET 0.000000 -17.918900 0.000000
         }
        }
       }
      }
     }
    }
   }
  }
 }
 JOINT RightHip
 {
  OFFSET -7.797300 0.005300 0.000500
  CHANNELS 3 Yrotation Xrotation Zrotation
  JOINT RightKnee
  {
   OFFSET 0.000000 -40.663400 -0.000500
   CHANNELS 3 Yrotation Xrotation Zrotation
   JOINT RightAnkle
   {
    OFFSET 0.000000 -39.523700 -0.000900
    CHANNELS 3 Yrotation Xrotation Zrotation
    JOINT RightToe
    {
     OFFSET 0.000000 -6.418000 14.485300
     CHANNELS 3 Yrotation Xrotation Zrotation
     End Site
     {
      OFFSET 0.000000 -1.465200 6.326400
     }
    }
   }
  }
 }
 JOINT LeftHip
 {
  OFFSET 7.797300 0.005300 0.000500
  CHANNELS 3 Yrotation Xrotation Zrotation
  JOINT LeftKnee
  {
   OFFSET 0.000000 -40.663400 -0.000500
   CHANNELS 3 Yrotation Xrotation Zrotation
   JOINT LeftAnkle
   {
    OFFSET 0.000000 -39.523700 -0.000900
    CHANNELS 3 Yrotation Xrotation Zrotation
    JOINT LeftToe
    {
     OFFSET 0.000000 -6.418000 14.485300
     CHANNELS 3 Yrotation Xrotation Zrotation
     End Site
     {
      OFFSET 0.000000 -1.465200 6.326400
     }
    }
   }
  }
 }
}
MOTION
Frames: 12
Frame Time: 0.008333
0.000000 86.422400 0.000000 0.000000 -5.767877 0.000000 0.000000 11.653817 0.000000 0.000000 -5.885947 0.000000 0.000000 -0.000000 0.000000 0.000000 -0.000000 0.000000 0.000000 12.528835 0.000000 0.000000 0.711642 0.000000 0.000000 -0.000000 0.000000 0.000000 0.000000 -90.000000 0.000000 -2.309062 0.000000 0.000000 2.309062 0.000000 0.000000 -0.000000 0.000000 0.000000 -0.000000 90.000000 0.000000 -2.309062 0.000000 0.000000 2.309062 0.000000 0.000000 8.520406 0.000000 0.000000 1.905762 0.000000 -0.000000 -4.658285 0.000000 0.000000 -0.000000 0.000000 0.000000 8.520406 0.000000 0.000000 1.905762 0.000000 -0.000000 -4.658285 0.000000 0.000000 -0.000000 0.000000
-15.033148 126.903620 11.947261 -173.693394 -47.442659 -4.494650 1.559577 27.133517 2.315424 0.196537 4.704202 0.348722 0.292080 7.461107 0.533848 1.188689 22.113473 1.812893 0.224257 13.499445 -1.246798 0.537528 -11.551852 -1.343171 0.656506 2.766691 1.100422 0.925754 -8.864311 -11.342688 -92.615775 -56.899873 143.056680 10.892775 18.562916 21.771245 -9.095353 -1.443616 -0.476646 -7.391764 -13.768975 15.893602 56.689619 -48.249785 -109.389895 -4.801679 5.356229 -16.414888 -1.061147 -25.491635 -1.008791 -10.305360 73.968957 -13.759055 10.478646 -7.562600 9.376382 0.002016 -0.001349 0.000893 5.079730 -5.330386 4.171760 143.574270 69.703246 160.733970 -2.822977 -14.932448 -12.496163 -0.002367 -0.001603 -0.001049
-15.033066 126.903866 11.947114 -173.695480 -47.441951 -4.487271 1.569172 27.127473 2.323617 0.197790 4.703121 0.349860 0.294018 7.458111 0.534379 1.196133 22.110197 1.817818 0.262102 13.518865 -1.246280 0.515440 -11.541565 -1.342521 0.634848 2.741085 1.108560 0.946402 -8.878682 -11.364025 -92.615706 -56.903349 143.042090 10.848818 18.569379 21.728204 -9.125738 -1.461613 -0.467620 -7.384022 -13.786807 15.876616 56.688056 -48.277094 -109.364065 -4.805864 5.358036 -16.378470 -1.069463 -25.494766 -1.013821 -10.291303 73.971959 -13.753806 10.500655 -7.565610 9.373154 0.004748 -0.002069 0.002104 5.080157 -5.328879 4.165665 143.570785 69.701301 160.729274 -2.822294 -14.936839 -12.498210 -0.001595 -0.002903 -0.000707
-15.033214 126.903925 11.947072 -173.700714 -47.439116 -4.475669 1.579020 27.120899 2.330637 0.199338 4.699878 0.348682 0.311660 7.446548 0.546800 1.183770 22.114231 1.813488 0.268534 13.538182 -1.247388 0.558130 -11.500811 -1.352009 0.614540 2.714367 1.115225 0.957591 -8.876891 -11.382092 -92.587790 -56.903282 143.001202 10.841441 18.483695 21.600996 -9.151679 -1.459344 -0.468994 -7.396396 -13.818870 15.876507 56.699332 -48.305922 -109.334913 -4.813460 5.362452 -16.347117 -1.065556 -25.497938 -1.025051 -10.260634 73.973318 -13.729805 10.523680 -7.576221 9.373754 0.007608 -0.003002 0.003371 5.083280 -5.329386 4.157037 143.572101 69.699643 160.729361 -2.819432 -14.941230 -12.498606 -0.000642 -0.004452 -0.000284
-15.033061 126.904437 11.946532 -173.700570 -47.438339 -4.470125 1.597454 27.110417 2.349769 0.189458 4.702189 0.341024 0.310140 7.445786 0.546402 1.195415 22.106136 1.820928 0.275786 13.561272 -1.247701 0.565686 -11.477065 -1.354080 0.593802 2.685305 1.120258 0.959652 -8.845595 -11.392995 -92.593511 -56.906194 143.008680 10.827329 18.429596 21.507159 -9.179520 -1.533246 -0.448378 -7.401074 -13.823462 15.855897 56.667297 -48.306699 -109.260474 -4.781103 5.370233 -16.336495 -1.066283 -25.498880 -1.032620 -10.254908 73.975539 -13.726229 10.526594 -7.581384 9.372328 0.008842 -0.003372 0.003918 5.081582 -5.323369 4.150806 143.569156 69.699912 160.724340 -2.817471 -14.948209 -12.499706 -0.000090 -0.003347 -0.000040
-15.033327 126.904905 11.945887 -173.705144 -47.436574 -4.458853 1.605174 27.103909 2.351182 0.191071 4.698910 0.341906 0.302256 7.451040 0.542088 1.216327 22.089612 1.831732 0.266963 13.584137 -1.249080 0.587875 -11.443359 -1.356561 0.572209 2.655606 1.125562 0.963170 -8.843038 -11.405925 -92.563641 -56.908563 142.983890 10.794558 18.400636 21.415581 -9.203019 -1.583110 -0.433063 -7.404759 -13.805531 15.842583 56.716514 -48.403899 -109.254945 -4.743449 5.373462 -16.295662 -1.077457 -25.501409 -1.032505 -10.246264 73.979693 -13.726195 10.457107 -7.581886 9.370142 -0.001425 -0.003680 -0.000631 5.077071 -5.314653 4.141516 143.561499 69.700622 160.709254 -2.816943 -14.957126 -12.502554 0.000494 -0.000599 0.000219
-15.033045 126.905253 11.945176 -173.709776 -47.432440 -4.451077 1.611724 27.095812 2.353780 0.190131 4.698282 0.340612 0.311414 7.442907 0.546522 1.223825 22.078883 1.838609 0.259017 13.611506 -1.250987 0.598846 -11.415754 -1.356871 0.553047 2.627996 1.130318 0.973025 -8.867877 -11.434423 -92.475033 -56.898919 142.896666 10.762476 18.369318 21.315247 -9.220550 -1.618016 -0.421514 -7.414950 -13.798850 15.836102 56.746743 -48.482453 -109.241980 -4.739212 5.374274 -16.234645 -1.088661 -25.505915 -1.030619 -10.246354 73.981414 -13.732947 10.412401 -7.581858 9.366217 -0.006614 -0.003268 -0.002930 5.074422 -5.313785 4.135740 143.558984 69.699314 160.702499 -2.818145 -14.960327 -12.504226 0.000729 -0.001146 0.000323
-15.032829 126.905294 11.944585 -173.719738 -47.424611 -4.439067 1.617130 27.086351 2.350779 0.192784 4.694889 0.342684 0.332382 7.414854 0.560580 1.218446 22.086194 1.838358 0.262487 13.647262 -1.250796 0.578211 -11.414860 -1.355234 0.533101 2.601423 1.132670 0.978565 -8.858845 -11.451932 -92.455562 -56.906312 142.905557 10.712352 18.343656 21.193528 -9.238292 -1.652435 -0.410181 -7.421104 -13.793894 15.829025 56.764968 -48.548308 -109.218365 -4.734879 5.379781 -16.181989 -1.092584 -25.513874 -1.029352 -10.302460 73.976687 -13.783708 10.360832 -7.576598 9.357189 -0.013166 -0.002536 -0.005833 5.076809 -5.317027 4.128818 143.554284 69.699688 160.693864 -2.818249 -14.961281 -12.503954 -0.000003 -0.002101 -0.000001
-15.031397 126.905573 11.943523 -173.726851 -47.417100 -4.436658 1.629195 27.073003 2.364397 0.194102 4.690245 0.343306 0.340564 7.406482 0.563023 1.221494 22.084772 1.842399 0.269273 13.677756 -1.251899 0.586473 -11.377646 -1.359657 0.513175 2.594453 1.132177 0.988486 -8.883310 -11.468236 -92.395220 -56.907514 142.841508 10.692035 18.313032 21.111580 -9.253036 -1.693978 -0.392618 -7.421550 -13.790812 15.819993 56.787112 -48.624489 -109.195772 -4.728643 5.389010 -16.128494 -1.099983 -25.520178 -1.032827 -10.291204 73.972269 -13.783564 10.452906 -7.589560 9.352433 0.000344 -0.002262 0.000152 5.078148 -5.320102 4.130393 143.561800 69.697427 160.698008 -2.814514 -14.968943 -12.501461 -0.002044 -0.002464 -0.000905
-15.030305 126.905772 11.942323 -173.730886 -47.407605 -4.434509 1.657694 27.050512 2.394273 0.197507 4.679410 0.346133 0.318864 7.419346 0.550485 1.240053 22.063502 1.856470 0.274178 13.719814 -1.257985 0.628270 -11.292541 -1.374679 0.487548 2.598231 1.127477 0.989150 -8.893930 -11.479111 -92.363860 -56.921418 142.815934 10.661585 18.284712 21.029475 -9.270421 -1.725833 -0.375399 -7.424202 -13.787811 15.809252 56.816447 -48.709568 -109.179060 -4.719480 5.397764 -16.067521 -1.106146 -25.529598 -1.031337 -10.309801 73.972224 -13.805234 10.470781 -7.596985 9.347506 0.001885 -0.002954 0.000835 5.076110 -5.324612 4.127816 143.576541 69.694182 160.714367 -2.809977 -14.978549 -12.505991 -0.000992 -0.003336 -0.000440
-15.030948 126.904747 11.942035 -173.731863 -47.387537 -4.423647 1.657316 27.027592 2.390405 0.202087 4.670645 0.352470 0.315593 7.420258 0.544928 1.255807 22.042101 1.870512 0.312376 13.764583 -1.259718 0.591537 -11.269844 -1.373165 0.475085 2.535741 1.126144 0.975399 -8.835437 -11.492932 -92.343262 -56.940602 142.803133 10.624139 18.259696 20.947674 -9.281781 -1.756056 -0.357691 -7.430996 -13.771864 15.790345 56.859435 -48.812538 -109.173936 -4.708349 5.405522 -15.998745 -1.108221 -25.551308 -1.037805 -10.326794 73.976593 -13.821326 10.428304 -7.600681 9.348370 -0.005678 -0.003568 -0.002516 5.069652 -5.339375 4.109607 143.584647 69.692437 160.725960 -2.806250 -14.984292 -12.516683 0.002435 -0.003656 0.001079
-15.029912 126.905700 11.939730 -173.730515 -47.381613 -4.425982 1.662329 27.019070 2.401239 0.205564 4.661101 0.356531 0.319080 7.412084 0.549317 1.242094 22.054533 1.861777 0.337588 13.774406 -1.259423 0.569420 -11.259848 -1.370507 0.477981 2.476167 1.128286 0.969417 -8.801684 -11.505313 -92.320691 -56.952901 142.779168 10.600236 18.239213 20.879226 -9.276522 -1.792814 -0.338236 -7.435884 -13.744249 15.767530 56.921239 -48.945024 -109.188335 -4.695829 5.409736 -15.921004 -1.115785 -25.557325 -1.041892 -10.297956 73.980170 -13.800835 10.484258 -7.609563 9.352926 -0.000387 -0.005306 -0.000171 5.064297 -5.341895 4.106128 143.592918 69.690863 160.740432 -2.801982 -14.986217 -12.528579 0.005210 -0.006905 0.002308
